<mxfile host="Electron" modified="2021-10-14T13:45:23.787Z" agent="5.0 (X11; Linux x86_64) AppleWebKit/537.36 (KHTML, like Gecko) draw.io/15.4.0 Chrome/91.0.4472.164 Electron/13.5.0 Safari/537.36" etag="fRNE6rHHDaRyL5OUe9zm" compressed="false" version="15.4.0" type="device">
  <diagram id="prtHgNgQTEPvFCAcTncT" name="Processos Alto Nível">
    <mxGraphModel dx="1874" dy="928" grid="1" gridSize="10" guides="1" tooltips="1" connect="1" arrows="1" fold="1" page="1" pageScale="1" pageWidth="827" pageHeight="1169" math="0" shadow="0">
      <root>
        <mxCell id="0" />
        <mxCell id="1" parent="0" />
        <mxCell id="j8fhtU1hvzyhwvqFzkYq-1" value="IFAP" style="swimlane;html=1;startSize=20;fontStyle=0;collapsible=0;horizontal=0;swimlaneLine=1;swimlaneFillColor=none;strokeWidth=2;rounded=0;shadow=0;glass=0;fontSize=14;fillColor=none;" parent="1" vertex="1">
          <mxGeometry x="40" y="610" width="3260" height="170" as="geometry" />
        </mxCell>
        <mxCell id="j8fhtU1hvzyhwvqFzkYq-11" style="edgeStyle=orthogonalEdgeStyle;rounded=0;orthogonalLoop=1;jettySize=auto;html=1;fontSize=15;startArrow=none;startFill=0;strokeWidth=2;" parent="j8fhtU1hvzyhwvqFzkYq-1" source="j8fhtU1hvzyhwvqFzkYq-7" target="j8fhtU1hvzyhwvqFzkYq-9" edge="1">
          <mxGeometry relative="1" as="geometry" />
        </mxCell>
        <mxCell id="j8fhtU1hvzyhwvqFzkYq-7" value="&lt;span style=&quot;font-family: &amp;#34;arial&amp;#34; , sans-serif ; font-size: 15px&quot;&gt;Candidatura VITIS&lt;br&gt;recebida&lt;br style=&quot;font-size: 15px&quot;&gt;&lt;/span&gt;" style="points=[[0.145,0.145,0],[0.5,0,0],[0.855,0.145,0],[1,0.5,0],[0.855,0.855,0],[0.5,1,0],[0.145,0.855,0],[0,0.5,0]];shape=mxgraph.bpmn.event;html=1;verticalLabelPosition=bottom;labelBackgroundColor=#ffffff;verticalAlign=top;align=center;perimeter=ellipsePerimeter;outlineConnect=0;aspect=fixed;outline=standard;symbol=message;rounded=0;shadow=0;glass=0;sketch=0;fontSize=15;" parent="j8fhtU1hvzyhwvqFzkYq-1" vertex="1">
          <mxGeometry x="160" y="65" width="40" height="40" as="geometry" />
        </mxCell>
        <mxCell id="j8fhtU1hvzyhwvqFzkYq-9" value="Processamento candidatura" style="points=[[0.25,0,0],[0.5,0,0],[0.75,0,0],[1,0.25,0],[1,0.5,0],[1,0.75,0],[0.75,1,0],[0.5,1,0],[0.25,1,0],[0,0.75,0],[0,0.5,0],[0,0.25,0]];shape=mxgraph.bpmn.task;whiteSpace=wrap;rectStyle=rounded;size=10;taskMarker=service;rounded=0;shadow=0;glass=0;sketch=0;fontSize=15;" parent="j8fhtU1hvzyhwvqFzkYq-1" vertex="1">
          <mxGeometry x="280" y="45" width="120" height="80" as="geometry" />
        </mxCell>
        <mxCell id="j8fhtU1hvzyhwvqFzkYq-5" value="Viticultor" style="swimlane;html=1;startSize=60;fontStyle=0;collapsible=0;horizontal=0;swimlaneLine=1;swimlaneFillColor=none;strokeWidth=2;rounded=0;shadow=0;glass=0;fontSize=14;fillColor=none;" parent="1" vertex="1">
          <mxGeometry x="40" y="450" width="3260" height="100" as="geometry" />
        </mxCell>
        <mxCell id="j8fhtU1hvzyhwvqFzkYq-8" value="&lt;span style=&quot;color: rgb(0 , 0 , 0) ; font-family: &amp;#34;helvetica&amp;#34; ; font-size: 15px ; font-style: normal ; font-weight: 400 ; letter-spacing: normal ; text-align: center ; text-indent: 0px ; text-transform: none ; word-spacing: 0px ; background-color: rgb(248 , 249 , 250) ; display: inline ; float: none&quot;&gt;Candidatura &lt;br&gt;VITIS&lt;/span&gt;" style="edgeStyle=orthogonalEdgeStyle;rounded=0;orthogonalLoop=1;jettySize=auto;html=1;entryX=0;entryY=0.5;entryDx=0;entryDy=0;entryPerimeter=0;fontSize=15;dashed=1;startArrow=oval;startFill=0;strokeWidth=2;" parent="1" target="j8fhtU1hvzyhwvqFzkYq-7" edge="1">
          <mxGeometry x="-0.7073" relative="1" as="geometry">
            <mxPoint x="140" y="550" as="sourcePoint" />
            <Array as="points">
              <mxPoint x="140" y="695" />
            </Array>
            <mxPoint as="offset" />
          </mxGeometry>
        </mxCell>
        <mxCell id="j8fhtU1hvzyhwvqFzkYq-12" value="IVV" style="swimlane;html=1;startSize=20;fontStyle=0;collapsible=0;horizontal=0;swimlaneLine=1;swimlaneFillColor=none;strokeWidth=2;rounded=0;shadow=0;glass=0;fontSize=14;fillColor=none;" parent="1" vertex="1">
          <mxGeometry x="40" y="780" width="3260" height="310" as="geometry" />
        </mxCell>
        <mxCell id="j8fhtU1hvzyhwvqFzkYq-19" style="edgeStyle=orthogonalEdgeStyle;rounded=0;jumpStyle=none;orthogonalLoop=1;jettySize=auto;html=1;fontSize=15;startArrow=none;startFill=0;strokeWidth=2;" parent="j8fhtU1hvzyhwvqFzkYq-12" source="j8fhtU1hvzyhwvqFzkYq-14" target="j8fhtU1hvzyhwvqFzkYq-18" edge="1">
          <mxGeometry relative="1" as="geometry" />
        </mxCell>
        <mxCell id="j8fhtU1hvzyhwvqFzkYq-23" style="edgeStyle=orthogonalEdgeStyle;rounded=0;jumpStyle=none;orthogonalLoop=1;jettySize=auto;html=1;entryX=0;entryY=0.5;entryDx=0;entryDy=0;entryPerimeter=0;fontSize=15;startArrow=none;startFill=0;strokeWidth=2;dashed=1;endArrow=open;endFill=0;" parent="j8fhtU1hvzyhwvqFzkYq-12" source="j8fhtU1hvzyhwvqFzkYq-14" target="j8fhtU1hvzyhwvqFzkYq-22" edge="1">
          <mxGeometry relative="1" as="geometry">
            <Array as="points">
              <mxPoint x="340" y="55" />
            </Array>
          </mxGeometry>
        </mxCell>
        <mxCell id="j8fhtU1hvzyhwvqFzkYq-14" value="&lt;font face=&quot;arial, sans-serif&quot;&gt;Candidaturas VITIS&lt;br&gt;selecionadas&lt;/font&gt;" style="points=[[0.145,0.145,0],[0.5,0,0],[0.855,0.145,0],[1,0.5,0],[0.855,0.855,0],[0.5,1,0],[0.145,0.855,0],[0,0.5,0]];shape=mxgraph.bpmn.event;html=1;verticalLabelPosition=bottom;labelBackgroundColor=#ffffff;verticalAlign=top;align=center;perimeter=ellipsePerimeter;outlineConnect=0;aspect=fixed;outline=standard;symbol=message;rounded=0;shadow=0;glass=0;sketch=0;fontSize=15;" parent="j8fhtU1hvzyhwvqFzkYq-12" vertex="1">
          <mxGeometry x="320" y="140" width="40" height="40" as="geometry" />
        </mxCell>
        <mxCell id="j8fhtU1hvzyhwvqFzkYq-26" style="edgeStyle=orthogonalEdgeStyle;rounded=0;jumpStyle=none;orthogonalLoop=1;jettySize=auto;html=1;fontSize=15;startArrow=none;startFill=0;endArrow=classic;endFill=1;strokeWidth=2;" parent="j8fhtU1hvzyhwvqFzkYq-12" source="j8fhtU1hvzyhwvqFzkYq-18" target="j8fhtU1hvzyhwvqFzkYq-25" edge="1">
          <mxGeometry relative="1" as="geometry" />
        </mxCell>
        <mxCell id="j8fhtU1hvzyhwvqFzkYq-18" value="Identificação de parcelas alvo de intervenção" style="points=[[0.25,0,0],[0.5,0,0],[0.75,0,0],[1,0.25,0],[1,0.5,0],[1,0.75,0],[0.75,1,0],[0.5,1,0],[0.25,1,0],[0,0.75,0],[0,0.5,0],[0,0.25,0]];shape=mxgraph.bpmn.task;whiteSpace=wrap;rectStyle=rounded;size=10;taskMarker=abstract;isLoopStandard=1;isLoopSub=1;rounded=0;shadow=0;glass=0;sketch=0;fontSize=15;" parent="j8fhtU1hvzyhwvqFzkYq-12" vertex="1">
          <mxGeometry x="430" y="120" width="120" height="80" as="geometry" />
        </mxCell>
        <mxCell id="j8fhtU1hvzyhwvqFzkYq-24" style="edgeStyle=orthogonalEdgeStyle;rounded=0;jumpStyle=none;orthogonalLoop=1;jettySize=auto;html=1;dashed=1;fontSize=15;startArrow=none;startFill=0;endArrow=open;endFill=0;strokeWidth=2;" parent="j8fhtU1hvzyhwvqFzkYq-12" source="j8fhtU1hvzyhwvqFzkYq-22" target="j8fhtU1hvzyhwvqFzkYq-18" edge="1">
          <mxGeometry relative="1" as="geometry" />
        </mxCell>
        <mxCell id="j8fhtU1hvzyhwvqFzkYq-22" value="Informação" style="shape=mxgraph.bpmn.data;labelPosition=center;verticalLabelPosition=top;align=center;verticalAlign=bottom;whiteSpace=wrap;size=19;html=1;rounded=0;shadow=0;glass=0;sketch=0;fontSize=15;" parent="j8fhtU1hvzyhwvqFzkYq-12" vertex="1">
          <mxGeometry x="470" y="30" width="40" height="50" as="geometry" />
        </mxCell>
        <mxCell id="j8fhtU1hvzyhwvqFzkYq-111" style="edgeStyle=orthogonalEdgeStyle;rounded=0;jumpStyle=none;orthogonalLoop=1;jettySize=auto;html=1;fontSize=15;startArrow=none;startFill=0;endArrow=classic;endFill=1;strokeWidth=2;" parent="j8fhtU1hvzyhwvqFzkYq-12" source="j8fhtU1hvzyhwvqFzkYq-25" target="j8fhtU1hvzyhwvqFzkYq-112" edge="1">
          <mxGeometry relative="1" as="geometry">
            <mxPoint x="920" y="160" as="targetPoint" />
          </mxGeometry>
        </mxCell>
        <mxCell id="j8fhtU1hvzyhwvqFzkYq-25" value="Atualização de informação sobre parcelas" style="points=[[0.25,0,0],[0.5,0,0],[0.75,0,0],[1,0.25,0],[1,0.5,0],[1,0.75,0],[0.75,1,0],[0.5,1,0],[0.25,1,0],[0,0.75,0],[0,0.5,0],[0,0.25,0]];shape=mxgraph.bpmn.task;whiteSpace=wrap;rectStyle=rounded;size=10;taskMarker=service;rounded=0;shadow=0;glass=0;sketch=0;fontSize=15;fillColor=#dae8fc;strokeColor=#6c8ebf;" parent="j8fhtU1hvzyhwvqFzkYq-12" vertex="1">
          <mxGeometry x="610" y="120" width="120" height="80" as="geometry" />
        </mxCell>
        <mxCell id="j8fhtU1hvzyhwvqFzkYq-29" style="edgeStyle=orthogonalEdgeStyle;rounded=0;jumpStyle=none;orthogonalLoop=1;jettySize=auto;html=1;fontSize=15;startArrow=none;startFill=0;endArrow=open;endFill=0;strokeWidth=2;dashed=1;" parent="j8fhtU1hvzyhwvqFzkYq-12" source="j8fhtU1hvzyhwvqFzkYq-27" target="j8fhtU1hvzyhwvqFzkYq-25" edge="1">
          <mxGeometry relative="1" as="geometry" />
        </mxCell>
        <mxCell id="j8fhtU1hvzyhwvqFzkYq-27" value="BD IVV" style="shape=datastore;labelPosition=center;verticalLabelPosition=top;align=center;verticalAlign=bottom;rounded=0;shadow=0;glass=0;sketch=0;fontSize=15;html=1;" parent="j8fhtU1hvzyhwvqFzkYq-12" vertex="1">
          <mxGeometry x="650" y="30" width="40" height="50" as="geometry" />
        </mxCell>
        <mxCell id="j8fhtU1hvzyhwvqFzkYq-118" style="edgeStyle=orthogonalEdgeStyle;rounded=0;jumpStyle=none;orthogonalLoop=1;jettySize=auto;html=1;fontSize=15;startArrow=none;startFill=0;endArrow=classic;endFill=1;strokeWidth=2;" parent="j8fhtU1hvzyhwvqFzkYq-12" source="j8fhtU1hvzyhwvqFzkYq-112" target="j8fhtU1hvzyhwvqFzkYq-119" edge="1">
          <mxGeometry relative="1" as="geometry">
            <mxPoint x="940" y="160" as="targetPoint" />
          </mxGeometry>
        </mxCell>
        <mxCell id="j8fhtU1hvzyhwvqFzkYq-112" value="Necessário identificar e contactar viticultores" style="points=[[0.25,0.25,0],[0.5,0,0],[0.75,0.25,0],[1,0.5,0],[0.75,0.75,0],[0.5,1,0],[0.25,0.75,0],[0,0.5,0]];shape=mxgraph.bpmn.gateway2;html=1;verticalLabelPosition=top;labelBackgroundColor=#ffffff;verticalAlign=bottom;align=center;perimeter=rhombusPerimeter;outlineConnect=0;outline=standard;symbol=conditional;rounded=0;shadow=0;glass=0;sketch=0;fontSize=15;fillColor=none;whiteSpace=wrap;labelPosition=center;" parent="j8fhtU1hvzyhwvqFzkYq-12" vertex="1">
          <mxGeometry x="810" y="135" width="50" height="50" as="geometry" />
        </mxCell>
        <mxCell id="j8fhtU1hvzyhwvqFzkYq-122" style="edgeStyle=orthogonalEdgeStyle;rounded=0;jumpStyle=arc;jumpSize=10;orthogonalLoop=1;jettySize=auto;html=1;fontSize=15;startArrow=none;startFill=0;endArrow=classic;endFill=1;strokeWidth=2;" parent="j8fhtU1hvzyhwvqFzkYq-12" source="j8fhtU1hvzyhwvqFzkYq-119" target="j8fhtU1hvzyhwvqFzkYq-121" edge="1">
          <mxGeometry relative="1" as="geometry" />
        </mxCell>
        <mxCell id="j8fhtU1hvzyhwvqFzkYq-119" value="Notificar viticultores" style="points=[[0.25,0,0],[0.5,0,0],[0.75,0,0],[1,0.25,0],[1,0.5,0],[1,0.75,0],[0.75,1,0],[0.5,1,0],[0.25,1,0],[0,0.75,0],[0,0.5,0],[0,0.25,0]];shape=mxgraph.bpmn.task;whiteSpace=wrap;rectStyle=rounded;size=10;taskMarker=send;rounded=0;shadow=0;glass=0;sketch=0;fontSize=15;fillColor=none;align=center;verticalAlign=middle;html=1;" parent="j8fhtU1hvzyhwvqFzkYq-12" vertex="1">
          <mxGeometry x="940" y="120" width="120" height="80" as="geometry" />
        </mxCell>
        <mxCell id="j8fhtU1hvzyhwvqFzkYq-121" value="Agendamento" style="points=[[0.145,0.145,0],[0.5,0,0],[0.855,0.145,0],[1,0.5,0],[0.855,0.855,0],[0.5,1,0],[0.145,0.855,0],[0,0.5,0]];shape=mxgraph.bpmn.event;html=1;verticalLabelPosition=bottom;labelBackgroundColor=#ffffff;verticalAlign=top;align=center;perimeter=ellipsePerimeter;outlineConnect=0;aspect=fixed;outline=catching;symbol=message;rounded=0;shadow=0;glass=0;sketch=0;fontSize=15;" parent="j8fhtU1hvzyhwvqFzkYq-12" vertex="1">
          <mxGeometry x="1150" y="135" width="50" height="50" as="geometry" />
        </mxCell>
        <mxCell id="A43F4s2ZnalGoexAEKTJ-45" value="1a" style="ellipse;whiteSpace=wrap;html=1;strokeWidth=2;fillWeight=2;hachureGap=8;fillColor=#3399FF;fillStyle=dashed;sketch=1;fontSize=20;fontColor=#000000;fontStyle=1;labelBackgroundColor=none;labelBorderColor=none;jiggle=1;" vertex="1" parent="j8fhtU1hvzyhwvqFzkYq-12">
          <mxGeometry x="210" y="210" width="40" height="40" as="geometry" />
        </mxCell>
        <mxCell id="j8fhtU1hvzyhwvqFzkYq-16" style="edgeStyle=orthogonalEdgeStyle;rounded=0;orthogonalLoop=1;jettySize=auto;html=1;entryX=0;entryY=0.5;entryDx=0;entryDy=0;entryPerimeter=0;fontSize=15;startArrow=oval;startFill=0;strokeWidth=2;dashed=1;jumpStyle=none;" parent="1" source="j8fhtU1hvzyhwvqFzkYq-9" target="j8fhtU1hvzyhwvqFzkYq-14" edge="1">
          <mxGeometry relative="1" as="geometry">
            <Array as="points">
              <mxPoint x="380" y="760" />
              <mxPoint x="300" y="760" />
              <mxPoint x="300" y="940" />
            </Array>
          </mxGeometry>
        </mxCell>
        <mxCell id="j8fhtU1hvzyhwvqFzkYq-30" value="PORVID" style="swimlane;html=1;startSize=20;fontStyle=0;collapsible=0;horizontal=0;swimlaneLine=1;swimlaneFillColor=none;strokeWidth=2;rounded=0;shadow=0;glass=0;sketch=0;fontSize=15;align=center;verticalAlign=bottom;fillColor=none;" parent="1" vertex="1">
          <mxGeometry x="40" y="1090" width="3260" height="410" as="geometry" />
        </mxCell>
        <mxCell id="al4PJ4pm5zgEQlfIhQZX-102" value="" style="rounded=0;whiteSpace=wrap;html=1;labelBackgroundColor=none;fontSize=20;strokeWidth=2;fillColor=#dae8fc;gradientDirection=south;dashed=1;strokeColor=#6c8ebf;" parent="j8fhtU1hvzyhwvqFzkYq-30" vertex="1">
          <mxGeometry x="750" y="30" width="540" height="310" as="geometry" />
        </mxCell>
        <mxCell id="A43F4s2ZnalGoexAEKTJ-1" value="" style="rounded=0;whiteSpace=wrap;html=1;labelBackgroundColor=none;fontSize=20;strokeWidth=2;fillColor=#dae8fc;gradientDirection=south;dashed=1;strokeColor=#6c8ebf;" vertex="1" parent="j8fhtU1hvzyhwvqFzkYq-30">
          <mxGeometry x="1310" y="30" width="210" height="310" as="geometry" />
        </mxCell>
        <mxCell id="A43F4s2ZnalGoexAEKTJ-42" value="" style="rounded=0;whiteSpace=wrap;html=1;labelBackgroundColor=none;fontSize=20;strokeWidth=2;fillColor=#dae8fc;gradientDirection=south;dashed=1;strokeColor=#6c8ebf;" vertex="1" parent="j8fhtU1hvzyhwvqFzkYq-30">
          <mxGeometry x="1910" y="65" width="900" height="225" as="geometry" />
        </mxCell>
        <mxCell id="j8fhtU1hvzyhwvqFzkYq-47" value="Decisão sobre parcelas de interesse a prospetar" style="points=[[0.25,0,0],[0.5,0,0],[0.75,0,0],[1,0.25,0],[1,0.5,0],[1,0.75,0],[0.75,1,0],[0.5,1,0],[0.25,1,0],[0,0.75,0],[0,0.5,0],[0,0.25,0]];shape=mxgraph.bpmn.task;whiteSpace=wrap;rectStyle=rounded;size=10;taskMarker=user;rounded=0;shadow=0;glass=0;sketch=0;fontSize=15;align=center;verticalAlign=middle;html=1;fillColor=#dae8fc;strokeColor=#6c8ebf;" parent="j8fhtU1hvzyhwvqFzkYq-30" vertex="1">
          <mxGeometry x="1340" y="95" width="150" height="90" as="geometry" />
        </mxCell>
        <mxCell id="j8fhtU1hvzyhwvqFzkYq-91" value="" style="points=[[0.25,0,0],[0.5,0,0],[0.75,0,0],[1,0.25,0],[1,0.5,0],[1,0.75,0],[0.75,1,0],[0.5,1,0],[0.25,1,0],[0,0.75,0],[0,0.5,0],[0,0.25,0]];shape=mxgraph.bpmn.task;whiteSpace=wrap;rectStyle=rounded;size=10;taskMarker=abstract;isLoopSub=1;rounded=0;shadow=0;glass=0;sketch=0;fontSize=15;align=center;verticalAlign=middle;html=1;fillColor=none;" parent="j8fhtU1hvzyhwvqFzkYq-30" vertex="1">
          <mxGeometry x="1340" y="95" width="150" height="90" as="geometry" />
        </mxCell>
        <mxCell id="j8fhtU1hvzyhwvqFzkYq-36" style="edgeStyle=orthogonalEdgeStyle;rounded=0;jumpStyle=none;orthogonalLoop=1;jettySize=auto;html=1;fontSize=15;startArrow=none;startFill=0;endArrow=classic;endFill=1;strokeWidth=2;" parent="j8fhtU1hvzyhwvqFzkYq-30" source="j8fhtU1hvzyhwvqFzkYq-31" target="j8fhtU1hvzyhwvqFzkYq-35" edge="1">
          <mxGeometry relative="1" as="geometry" />
        </mxCell>
        <mxCell id="j8fhtU1hvzyhwvqFzkYq-31" value="&lt;font face=&quot;arial, sans-serif&quot;&gt;Parcelas a ser intervidas&lt;/font&gt;" style="points=[[0.145,0.145,0],[0.5,0,0],[0.855,0.145,0],[1,0.5,0],[0.855,0.855,0],[0.5,1,0],[0.145,0.855,0],[0,0.5,0]];shape=mxgraph.bpmn.event;html=1;verticalLabelPosition=bottom;labelBackgroundColor=#ffffff;verticalAlign=top;align=center;perimeter=ellipsePerimeter;outlineConnect=0;aspect=fixed;outline=standard;symbol=message;rounded=0;shadow=0;glass=0;sketch=0;fontSize=15;whiteSpace=wrap;" parent="j8fhtU1hvzyhwvqFzkYq-30" vertex="1">
          <mxGeometry x="650" y="120" width="40" height="40" as="geometry" />
        </mxCell>
        <mxCell id="j8fhtU1hvzyhwvqFzkYq-38" style="edgeStyle=orthogonalEdgeStyle;rounded=0;jumpStyle=none;orthogonalLoop=1;jettySize=auto;html=1;fontSize=15;startArrow=none;startFill=0;endArrow=classic;endFill=1;strokeWidth=2;" parent="j8fhtU1hvzyhwvqFzkYq-30" source="j8fhtU1hvzyhwvqFzkYq-35" target="j8fhtU1hvzyhwvqFzkYq-37" edge="1">
          <mxGeometry relative="1" as="geometry">
            <Array as="points">
              <mxPoint x="792" y="90" />
            </Array>
          </mxGeometry>
        </mxCell>
        <mxCell id="j8fhtU1hvzyhwvqFzkYq-41" style="edgeStyle=orthogonalEdgeStyle;rounded=0;jumpStyle=none;orthogonalLoop=1;jettySize=auto;html=1;fontSize=15;startArrow=none;startFill=0;endArrow=classic;endFill=1;strokeWidth=2;entryX=0;entryY=0.5;entryDx=0;entryDy=0;entryPerimeter=0;" parent="j8fhtU1hvzyhwvqFzkYq-30" source="j8fhtU1hvzyhwvqFzkYq-35" target="j8fhtU1hvzyhwvqFzkYq-40" edge="1">
          <mxGeometry relative="1" as="geometry">
            <mxPoint x="780" y="360" as="targetPoint" />
            <Array as="points">
              <mxPoint x="792" y="190" />
            </Array>
          </mxGeometry>
        </mxCell>
        <mxCell id="j8fhtU1hvzyhwvqFzkYq-35" value="" style="points=[[0.25,0.25,0],[0.5,0,0],[0.75,0.25,0],[1,0.5,0],[0.75,0.75,0],[0.5,1,0],[0.25,0.75,0],[0,0.5,0]];shape=mxgraph.bpmn.gateway2;html=1;verticalLabelPosition=bottom;labelBackgroundColor=#ffffff;verticalAlign=top;align=center;perimeter=rhombusPerimeter;outlineConnect=0;outline=none;symbol=none;gwType=parallel;rounded=0;shadow=0;glass=0;sketch=0;fontSize=15;" parent="j8fhtU1hvzyhwvqFzkYq-30" vertex="1">
          <mxGeometry x="767" y="115" width="50" height="50" as="geometry" />
        </mxCell>
        <mxCell id="j8fhtU1hvzyhwvqFzkYq-46" style="edgeStyle=orthogonalEdgeStyle;rounded=0;jumpStyle=none;orthogonalLoop=1;jettySize=auto;html=1;entryX=0.5;entryY=0;entryDx=0;entryDy=0;entryPerimeter=0;fontSize=15;startArrow=none;startFill=0;endArrow=classic;endFill=1;strokeWidth=2;" parent="j8fhtU1hvzyhwvqFzkYq-30" source="j8fhtU1hvzyhwvqFzkYq-37" target="j8fhtU1hvzyhwvqFzkYq-44" edge="1">
          <mxGeometry relative="1" as="geometry" />
        </mxCell>
        <mxCell id="j8fhtU1hvzyhwvqFzkYq-37" value="Identificação de idade das vinhas" style="points=[[0.25,0,0],[0.5,0,0],[0.75,0,0],[1,0.25,0],[1,0.5,0],[1,0.75,0],[0.75,1,0],[0.5,1,0],[0.25,1,0],[0,0.75,0],[0,0.5,0],[0,0.25,0]];shape=mxgraph.bpmn.task;whiteSpace=wrap;rectStyle=rounded;size=10;taskMarker=user;rounded=0;shadow=0;glass=0;sketch=0;fontSize=15;align=center;verticalAlign=middle;html=1;fillColor=#fff2cc;strokeColor=#d6b656;" parent="j8fhtU1hvzyhwvqFzkYq-30" vertex="1">
          <mxGeometry x="870" y="50" width="120" height="80" as="geometry" />
        </mxCell>
        <mxCell id="j8fhtU1hvzyhwvqFzkYq-43" style="edgeStyle=orthogonalEdgeStyle;rounded=0;jumpStyle=none;orthogonalLoop=1;jettySize=auto;html=1;fontSize=15;startArrow=none;startFill=0;endArrow=classic;endFill=1;strokeWidth=2;" parent="j8fhtU1hvzyhwvqFzkYq-30" source="j8fhtU1hvzyhwvqFzkYq-40" target="j8fhtU1hvzyhwvqFzkYq-42" edge="1">
          <mxGeometry relative="1" as="geometry" />
        </mxCell>
        <mxCell id="j8fhtU1hvzyhwvqFzkYq-40" value="Identificação de castas" style="points=[[0.25,0,0],[0.5,0,0],[0.75,0,0],[1,0.25,0],[1,0.5,0],[1,0.75,0],[0.75,1,0],[0.5,1,0],[0.25,1,0],[0,0.75,0],[0,0.5,0],[0,0.25,0]];shape=mxgraph.bpmn.task;whiteSpace=wrap;rectStyle=rounded;size=10;taskMarker=service;rounded=0;shadow=0;glass=0;sketch=0;fontSize=15;align=center;verticalAlign=middle;html=1;fillColor=#fff2cc;strokeColor=#d6b656;" parent="j8fhtU1hvzyhwvqFzkYq-30" vertex="1">
          <mxGeometry x="870" y="150" width="120" height="80" as="geometry" />
        </mxCell>
        <mxCell id="j8fhtU1hvzyhwvqFzkYq-45" style="edgeStyle=orthogonalEdgeStyle;rounded=0;jumpStyle=none;orthogonalLoop=1;jettySize=auto;html=1;entryX=0.5;entryY=1;entryDx=0;entryDy=0;entryPerimeter=0;fontSize=15;startArrow=none;startFill=0;endArrow=classic;endFill=1;strokeWidth=2;" parent="j8fhtU1hvzyhwvqFzkYq-30" source="j8fhtU1hvzyhwvqFzkYq-42" target="j8fhtU1hvzyhwvqFzkYq-44" edge="1">
          <mxGeometry relative="1" as="geometry" />
        </mxCell>
        <mxCell id="j8fhtU1hvzyhwvqFzkYq-42" value="Identificação de % de &quot;outras castas&quot;" style="points=[[0.25,0,0],[0.5,0,0],[0.75,0,0],[1,0.25,0],[1,0.5,0],[1,0.75,0],[0.75,1,0],[0.5,1,0],[0.25,1,0],[0,0.75,0],[0,0.5,0],[0,0.25,0]];shape=mxgraph.bpmn.task;whiteSpace=wrap;rectStyle=rounded;size=10;taskMarker=service;rounded=0;shadow=0;glass=0;sketch=0;fontSize=15;align=center;verticalAlign=middle;html=1;fillColor=#fff2cc;strokeColor=#d6b656;" parent="j8fhtU1hvzyhwvqFzkYq-30" vertex="1">
          <mxGeometry x="1061" y="150" width="120" height="80" as="geometry" />
        </mxCell>
        <mxCell id="j8fhtU1hvzyhwvqFzkYq-48" style="edgeStyle=orthogonalEdgeStyle;rounded=0;jumpStyle=none;orthogonalLoop=1;jettySize=auto;html=1;fontSize=15;startArrow=none;startFill=0;endArrow=classic;endFill=1;strokeWidth=2;" parent="j8fhtU1hvzyhwvqFzkYq-30" source="j8fhtU1hvzyhwvqFzkYq-44" target="j8fhtU1hvzyhwvqFzkYq-47" edge="1">
          <mxGeometry relative="1" as="geometry" />
        </mxCell>
        <mxCell id="j8fhtU1hvzyhwvqFzkYq-44" value="" style="points=[[0.25,0.25,0],[0.5,0,0],[0.75,0.25,0],[1,0.5,0],[0.75,0.75,0],[0.5,1,0],[0.25,0.75,0],[0,0.5,0]];shape=mxgraph.bpmn.gateway2;html=1;verticalLabelPosition=bottom;labelBackgroundColor=#ffffff;verticalAlign=top;align=center;perimeter=rhombusPerimeter;outlineConnect=0;outline=none;symbol=none;gwType=parallel;rounded=0;shadow=0;glass=0;sketch=0;fontSize=15;" parent="j8fhtU1hvzyhwvqFzkYq-30" vertex="1">
          <mxGeometry x="1220" y="115" width="50" height="50" as="geometry" />
        </mxCell>
        <mxCell id="j8fhtU1hvzyhwvqFzkYq-58" value="Sem interesse" style="edgeStyle=orthogonalEdgeStyle;rounded=0;jumpStyle=none;orthogonalLoop=1;jettySize=auto;html=1;fontSize=15;startArrow=none;startFill=0;endArrow=classic;endFill=1;strokeWidth=2;" parent="j8fhtU1hvzyhwvqFzkYq-30" source="j8fhtU1hvzyhwvqFzkYq-49" target="j8fhtU1hvzyhwvqFzkYq-55" edge="1">
          <mxGeometry relative="1" as="geometry" />
        </mxCell>
        <mxCell id="j8fhtU1hvzyhwvqFzkYq-59" value="Com interesse" style="edgeStyle=orthogonalEdgeStyle;rounded=0;jumpStyle=none;orthogonalLoop=1;jettySize=auto;html=1;fontSize=15;startArrow=none;startFill=0;endArrow=classic;endFill=1;strokeWidth=2;entryX=0;entryY=0.5;entryDx=0;entryDy=0;entryPerimeter=0;" parent="j8fhtU1hvzyhwvqFzkYq-30" source="j8fhtU1hvzyhwvqFzkYq-49" target="j8fhtU1hvzyhwvqFzkYq-98" edge="1">
          <mxGeometry x="0.3333" relative="1" as="geometry">
            <mxPoint x="1580" y="430" as="targetPoint" />
            <Array as="points">
              <mxPoint x="1575" y="235" />
            </Array>
            <mxPoint as="offset" />
          </mxGeometry>
        </mxCell>
        <mxCell id="j8fhtU1hvzyhwvqFzkYq-49" value="" style="points=[[0.25,0.25,0],[0.5,0,0],[0.75,0.25,0],[1,0.5,0],[0.75,0.75,0],[0.5,1,0],[0.25,0.75,0],[0,0.5,0]];shape=mxgraph.bpmn.gateway2;html=1;verticalLabelPosition=bottom;labelBackgroundColor=#ffffff;verticalAlign=top;align=center;perimeter=rhombusPerimeter;outlineConnect=0;outline=none;symbol=none;gwType=exclusive;rounded=0;shadow=0;glass=0;sketch=0;fontSize=15;" parent="j8fhtU1hvzyhwvqFzkYq-30" vertex="1">
          <mxGeometry x="1550" y="115.5" width="50" height="50" as="geometry" />
        </mxCell>
        <mxCell id="j8fhtU1hvzyhwvqFzkYq-62" style="edgeStyle=orthogonalEdgeStyle;rounded=0;jumpStyle=none;orthogonalLoop=1;jettySize=auto;html=1;fontSize=15;startArrow=none;startFill=0;endArrow=classic;endFill=1;strokeWidth=2;" parent="j8fhtU1hvzyhwvqFzkYq-30" source="j8fhtU1hvzyhwvqFzkYq-55" target="j8fhtU1hvzyhwvqFzkYq-61" edge="1">
          <mxGeometry relative="1" as="geometry" />
        </mxCell>
        <mxCell id="j8fhtU1hvzyhwvqFzkYq-55" value="Notificar IVV" style="points=[[0.25,0,0],[0.5,0,0],[0.75,0,0],[1,0.25,0],[1,0.5,0],[1,0.75,0],[0.75,1,0],[0.5,1,0],[0.25,1,0],[0,0.75,0],[0,0.5,0],[0,0.25,0]];shape=mxgraph.bpmn.task;whiteSpace=wrap;rectStyle=rounded;size=10;taskMarker=send;rounded=0;shadow=0;glass=0;sketch=0;fontSize=15;align=center;verticalAlign=middle;html=1;" parent="j8fhtU1hvzyhwvqFzkYq-30" vertex="1">
          <mxGeometry x="1750" y="105.5" width="150" height="70" as="geometry" />
        </mxCell>
        <mxCell id="j8fhtU1hvzyhwvqFzkYq-65" style="edgeStyle=orthogonalEdgeStyle;rounded=0;jumpStyle=none;orthogonalLoop=1;jettySize=auto;html=1;fontSize=15;startArrow=none;startFill=0;endArrow=classic;endFill=1;strokeWidth=2;exitX=1;exitY=0.5;exitDx=0;exitDy=0;exitPerimeter=0;" parent="j8fhtU1hvzyhwvqFzkYq-30" source="j8fhtU1hvzyhwvqFzkYq-51" target="j8fhtU1hvzyhwvqFzkYq-64" edge="1">
          <mxGeometry relative="1" as="geometry">
            <mxPoint x="2110" y="235" as="sourcePoint" />
            <Array as="points">
              <mxPoint x="2140" y="235" />
              <mxPoint x="2140" y="135" />
            </Array>
          </mxGeometry>
        </mxCell>
        <mxCell id="j8fhtU1hvzyhwvqFzkYq-51" value="Verificar consentimento partilha informação" style="points=[[0.25,0,0],[0.5,0,0],[0.75,0,0],[1,0.25,0],[1,0.5,0],[1,0.75,0],[0.75,1,0],[0.5,1,0],[0.25,1,0],[0,0.75,0],[0,0.5,0],[0,0.25,0]];shape=mxgraph.bpmn.task;whiteSpace=wrap;rectStyle=rounded;size=10;taskMarker=abstract;rounded=0;shadow=0;glass=0;sketch=0;fontSize=15;align=center;verticalAlign=middle;html=1;" parent="j8fhtU1hvzyhwvqFzkYq-30" vertex="1">
          <mxGeometry x="1920" y="195" width="150" height="80" as="geometry" />
        </mxCell>
        <mxCell id="j8fhtU1hvzyhwvqFzkYq-61" value="" style="points=[[0.145,0.145,0],[0.5,0,0],[0.855,0.145,0],[1,0.5,0],[0.855,0.855,0],[0.5,1,0],[0.145,0.855,0],[0,0.5,0]];shape=mxgraph.bpmn.event;html=1;verticalLabelPosition=bottom;labelBackgroundColor=#ffffff;verticalAlign=top;align=center;perimeter=ellipsePerimeter;outlineConnect=0;aspect=fixed;outline=end;symbol=terminate2;rounded=0;shadow=0;glass=0;sketch=0;fontSize=15;" parent="j8fhtU1hvzyhwvqFzkYq-30" vertex="1">
          <mxGeometry x="1970" y="115" width="50" height="50" as="geometry" />
        </mxCell>
        <mxCell id="j8fhtU1hvzyhwvqFzkYq-67" value="Concedido" style="edgeStyle=orthogonalEdgeStyle;rounded=0;jumpStyle=none;orthogonalLoop=1;jettySize=auto;html=1;fontSize=15;startArrow=none;startFill=0;endArrow=classic;endFill=1;strokeWidth=2;entryX=0;entryY=0.5;entryDx=0;entryDy=0;entryPerimeter=0;" parent="j8fhtU1hvzyhwvqFzkYq-30" source="j8fhtU1hvzyhwvqFzkYq-64" target="j8fhtU1hvzyhwvqFzkYq-103" edge="1">
          <mxGeometry relative="1" as="geometry">
            <mxPoint x="2280" y="220" as="targetPoint" />
            <Array as="points">
              <mxPoint x="2185" y="235" />
            </Array>
          </mxGeometry>
        </mxCell>
        <mxCell id="j8fhtU1hvzyhwvqFzkYq-72" value="Não concedido" style="edgeStyle=orthogonalEdgeStyle;rounded=0;jumpStyle=none;orthogonalLoop=1;jettySize=auto;html=1;fontSize=15;startArrow=none;startFill=0;endArrow=classic;endFill=1;strokeWidth=2;" parent="j8fhtU1hvzyhwvqFzkYq-30" source="j8fhtU1hvzyhwvqFzkYq-64" target="j8fhtU1hvzyhwvqFzkYq-71" edge="1">
          <mxGeometry x="-0.125" relative="1" as="geometry">
            <Array as="points">
              <mxPoint x="2280" y="135" />
              <mxPoint x="2280" y="135" />
            </Array>
            <mxPoint as="offset" />
          </mxGeometry>
        </mxCell>
        <mxCell id="j8fhtU1hvzyhwvqFzkYq-64" value="" style="points=[[0.25,0.25,0],[0.5,0,0],[0.75,0.25,0],[1,0.5,0],[0.75,0.75,0],[0.5,1,0],[0.25,0.75,0],[0,0.5,0]];shape=mxgraph.bpmn.gateway2;html=1;verticalLabelPosition=bottom;labelBackgroundColor=#ffffff;verticalAlign=top;align=center;perimeter=rhombusPerimeter;outlineConnect=0;outline=none;symbol=none;gwType=exclusive;rounded=0;shadow=0;glass=0;sketch=0;fontSize=15;" parent="j8fhtU1hvzyhwvqFzkYq-30" vertex="1">
          <mxGeometry x="2160" y="110" width="50" height="50" as="geometry" />
        </mxCell>
        <mxCell id="j8fhtU1hvzyhwvqFzkYq-76" style="edgeStyle=orthogonalEdgeStyle;rounded=0;jumpStyle=none;orthogonalLoop=1;jettySize=auto;html=1;fontSize=15;startArrow=none;startFill=0;endArrow=classic;endFill=1;strokeWidth=2;" parent="j8fhtU1hvzyhwvqFzkYq-30" source="j8fhtU1hvzyhwvqFzkYq-66" target="j8fhtU1hvzyhwvqFzkYq-74" edge="1">
          <mxGeometry relative="1" as="geometry" />
        </mxCell>
        <mxCell id="j8fhtU1hvzyhwvqFzkYq-66" value="Agendar visita à vinha" style="points=[[0.25,0,0],[0.5,0,0],[0.75,0,0],[1,0.25,0],[1,0.5,0],[1,0.75,0],[0.75,1,0],[0.5,1,0],[0.25,1,0],[0,0.75,0],[0,0.5,0],[0,0.25,0]];shape=mxgraph.bpmn.task;whiteSpace=wrap;rectStyle=rounded;size=10;taskMarker=send;rounded=0;shadow=0;glass=0;sketch=0;fontSize=15;align=center;verticalAlign=middle;html=1;fillColor=#fff2cc;strokeColor=#d6b656;" parent="j8fhtU1hvzyhwvqFzkYq-30" vertex="1">
          <mxGeometry x="2555" y="195" width="130" height="80" as="geometry" />
        </mxCell>
        <mxCell id="j8fhtU1hvzyhwvqFzkYq-69" value="" style="edgeStyle=orthogonalEdgeStyle;rounded=0;jumpStyle=none;orthogonalLoop=1;jettySize=auto;html=1;fontSize=15;startArrow=none;startFill=0;endArrow=open;endFill=0;strokeWidth=2;dashed=1;" parent="j8fhtU1hvzyhwvqFzkYq-30" source="j8fhtU1hvzyhwvqFzkYq-68" target="j8fhtU1hvzyhwvqFzkYq-47" edge="1">
          <mxGeometry relative="1" as="geometry">
            <Array as="points">
              <mxPoint x="1415" y="130" />
              <mxPoint x="1415" y="130" />
            </Array>
          </mxGeometry>
        </mxCell>
        <mxCell id="j8fhtU1hvzyhwvqFzkYq-68" value="BD PORVID" style="shape=datastore;labelPosition=center;verticalLabelPosition=bottom;align=center;verticalAlign=top;rounded=0;shadow=0;glass=0;sketch=0;fontSize=15;html=1;" parent="j8fhtU1hvzyhwvqFzkYq-30" vertex="1">
          <mxGeometry x="1395" y="230" width="40" height="50" as="geometry" />
        </mxCell>
        <mxCell id="j8fhtU1hvzyhwvqFzkYq-71" value="Notificar IVV" style="points=[[0.25,0,0],[0.5,0,0],[0.75,0,0],[1,0.25,0],[1,0.5,0],[1,0.75,0],[0.75,1,0],[0.5,1,0],[0.25,1,0],[0,0.75,0],[0,0.5,0],[0,0.25,0]];shape=mxgraph.bpmn.task;whiteSpace=wrap;rectStyle=rounded;size=10;taskMarker=send;rounded=0;shadow=0;glass=0;sketch=0;fontSize=15;align=center;verticalAlign=middle;html=1;fillColor=#fff2cc;strokeColor=#d6b656;" parent="j8fhtU1hvzyhwvqFzkYq-30" vertex="1">
          <mxGeometry x="2340" y="95" width="130" height="80" as="geometry" />
        </mxCell>
        <mxCell id="j8fhtU1hvzyhwvqFzkYq-106" style="edgeStyle=orthogonalEdgeStyle;rounded=0;jumpStyle=none;orthogonalLoop=1;jettySize=auto;html=1;fontSize=15;startArrow=none;startFill=0;endArrow=classic;endFill=1;strokeWidth=2;" parent="j8fhtU1hvzyhwvqFzkYq-30" source="j8fhtU1hvzyhwvqFzkYq-74" target="j8fhtU1hvzyhwvqFzkYq-77" edge="1">
          <mxGeometry relative="1" as="geometry" />
        </mxCell>
        <mxCell id="j8fhtU1hvzyhwvqFzkYq-74" value="Agendamento" style="points=[[0.145,0.145,0],[0.5,0,0],[0.855,0.145,0],[1,0.5,0],[0.855,0.855,0],[0.5,1,0],[0.145,0.855,0],[0,0.5,0]];shape=mxgraph.bpmn.event;html=1;verticalLabelPosition=bottom;labelBackgroundColor=#ffffff;verticalAlign=top;align=center;perimeter=ellipsePerimeter;outlineConnect=0;aspect=fixed;outline=catching;symbol=message;rounded=0;shadow=0;glass=0;sketch=0;fontSize=15;" parent="j8fhtU1hvzyhwvqFzkYq-30" vertex="1">
          <mxGeometry x="2735" y="210" width="50" height="50" as="geometry" />
        </mxCell>
        <mxCell id="j8fhtU1hvzyhwvqFzkYq-97" style="edgeStyle=orthogonalEdgeStyle;rounded=0;jumpStyle=none;orthogonalLoop=1;jettySize=auto;html=1;fontSize=15;startArrow=none;startFill=0;endArrow=classic;endFill=1;strokeWidth=2;" parent="j8fhtU1hvzyhwvqFzkYq-30" source="j8fhtU1hvzyhwvqFzkYq-91" target="j8fhtU1hvzyhwvqFzkYq-49" edge="1">
          <mxGeometry relative="1" as="geometry" />
        </mxCell>
        <mxCell id="j8fhtU1hvzyhwvqFzkYq-99" style="edgeStyle=orthogonalEdgeStyle;rounded=0;jumpStyle=none;orthogonalLoop=1;jettySize=auto;html=1;fontSize=15;startArrow=none;startFill=0;endArrow=classic;endFill=1;strokeWidth=2;" parent="j8fhtU1hvzyhwvqFzkYq-30" source="j8fhtU1hvzyhwvqFzkYq-98" target="j8fhtU1hvzyhwvqFzkYq-51" edge="1">
          <mxGeometry relative="1" as="geometry" />
        </mxCell>
        <mxCell id="j8fhtU1hvzyhwvqFzkYq-98" value="" style="points=[[0.25,0.25,0],[0.5,0,0],[0.75,0.25,0],[1,0.5,0],[0.75,0.75,0],[0.5,1,0],[0.25,0.75,0],[0,0.5,0]];shape=mxgraph.bpmn.gateway2;html=1;verticalLabelPosition=bottom;labelBackgroundColor=#ffffff;verticalAlign=top;align=center;perimeter=rhombusPerimeter;outlineConnect=0;outline=none;symbol=none;gwType=parallel;rounded=0;shadow=0;glass=0;sketch=0;fontSize=15;fillColor=none;" parent="j8fhtU1hvzyhwvqFzkYq-30" vertex="1">
          <mxGeometry x="1810" y="210" width="50" height="50" as="geometry" />
        </mxCell>
        <mxCell id="j8fhtU1hvzyhwvqFzkYq-105" style="edgeStyle=orthogonalEdgeStyle;rounded=0;jumpStyle=none;orthogonalLoop=1;jettySize=auto;html=1;fontSize=15;startArrow=none;startFill=0;endArrow=classic;endFill=1;strokeWidth=2;" parent="j8fhtU1hvzyhwvqFzkYq-30" source="j8fhtU1hvzyhwvqFzkYq-103" target="j8fhtU1hvzyhwvqFzkYq-66" edge="1">
          <mxGeometry relative="1" as="geometry" />
        </mxCell>
        <mxCell id="j8fhtU1hvzyhwvqFzkYq-103" value="" style="points=[[0.25,0.25,0],[0.5,0,0],[0.75,0.25,0],[1,0.5,0],[0.75,0.75,0],[0.5,1,0],[0.25,0.75,0],[0,0.5,0]];shape=mxgraph.bpmn.gateway2;html=1;verticalLabelPosition=bottom;labelBackgroundColor=#ffffff;verticalAlign=top;align=center;perimeter=rhombusPerimeter;outlineConnect=0;outline=none;symbol=none;gwType=parallel;rounded=0;shadow=0;glass=0;sketch=0;fontSize=15;fillColor=none;" parent="j8fhtU1hvzyhwvqFzkYq-30" vertex="1">
          <mxGeometry x="2380" y="210" width="50" height="50" as="geometry" />
        </mxCell>
        <mxCell id="al4PJ4pm5zgEQlfIhQZX-2" style="edgeStyle=orthogonalEdgeStyle;rounded=0;orthogonalLoop=1;jettySize=auto;html=1;strokeWidth=2;" parent="j8fhtU1hvzyhwvqFzkYq-30" source="j8fhtU1hvzyhwvqFzkYq-77" target="al4PJ4pm5zgEQlfIhQZX-1" edge="1">
          <mxGeometry relative="1" as="geometry" />
        </mxCell>
        <mxCell id="j8fhtU1hvzyhwvqFzkYq-77" value="Validação/recolha de amostras" style="points=[[0.25,0,0],[0.5,0,0],[0.75,0,0],[1,0.25,0],[1,0.5,0],[1,0.75,0],[0.75,1,0],[0.5,1,0],[0.25,1,0],[0,0.75,0],[0,0.5,0],[0,0.25,0]];shape=mxgraph.bpmn.task;whiteSpace=wrap;rectStyle=rounded;size=10;taskMarker=user;rounded=0;shadow=0;glass=0;sketch=0;fontSize=15;align=center;verticalAlign=middle;html=1;fillColor=#f8cecc;strokeColor=#b85450;" parent="j8fhtU1hvzyhwvqFzkYq-30" vertex="1">
          <mxGeometry x="2834.5" y="195" width="120" height="80" as="geometry" />
        </mxCell>
        <mxCell id="j8fhtU1hvzyhwvqFzkYq-88" value="" style="points=[[0.145,0.145,0],[0.5,0,0],[0.855,0.145,0],[1,0.5,0],[0.855,0.855,0],[0.5,1,0],[0.145,0.855,0],[0,0.5,0]];shape=mxgraph.bpmn.event;html=1;verticalLabelPosition=bottom;labelBackgroundColor=#ffffff;verticalAlign=top;align=center;perimeter=ellipsePerimeter;outlineConnect=0;aspect=fixed;outline=boundInt;symbol=error;rounded=0;shadow=0;glass=0;sketch=0;fontSize=15;" parent="j8fhtU1hvzyhwvqFzkYq-30" vertex="1">
          <mxGeometry x="2914.5" y="260" width="30" height="30" as="geometry" />
        </mxCell>
        <mxCell id="j8fhtU1hvzyhwvqFzkYq-89" value="Documentação" style="points=[[0.25,0,0],[0.5,0,0],[0.75,0,0],[1,0.25,0],[1,0.5,0],[1,0.75,0],[0.75,1,0],[0.5,1,0],[0.25,1,0],[0,0.75,0],[0,0.5,0],[0,0.25,0]];shape=mxgraph.bpmn.task;whiteSpace=wrap;rectStyle=rounded;size=10;taskMarker=user;rounded=0;shadow=0;glass=0;sketch=0;fontSize=15;align=center;verticalAlign=middle;html=1;" parent="j8fhtU1hvzyhwvqFzkYq-30" vertex="1">
          <mxGeometry x="2954.5" y="305" width="120" height="80" as="geometry" />
        </mxCell>
        <mxCell id="j8fhtU1hvzyhwvqFzkYq-90" style="edgeStyle=orthogonalEdgeStyle;rounded=0;jumpStyle=none;orthogonalLoop=1;jettySize=auto;html=1;fontSize=15;startArrow=none;startFill=0;endArrow=classic;endFill=1;strokeWidth=2;" parent="j8fhtU1hvzyhwvqFzkYq-30" source="j8fhtU1hvzyhwvqFzkYq-88" target="j8fhtU1hvzyhwvqFzkYq-89" edge="1">
          <mxGeometry x="2894.5" y="765" as="geometry">
            <Array as="points">
              <mxPoint x="2929.5" y="360" />
            </Array>
          </mxGeometry>
        </mxCell>
        <mxCell id="al4PJ4pm5zgEQlfIhQZX-1" value="" style="points=[[0.145,0.145,0],[0.5,0,0],[0.855,0.145,0],[1,0.5,0],[0.855,0.855,0],[0.5,1,0],[0.145,0.855,0],[0,0.5,0]];shape=mxgraph.bpmn.event;html=1;verticalLabelPosition=bottom;labelBackgroundColor=#ffffff;verticalAlign=top;align=center;perimeter=ellipsePerimeter;outlineConnect=0;aspect=fixed;outline=end;symbol=terminate2;rounded=0;shadow=0;glass=0;sketch=0;fontSize=15;" parent="j8fhtU1hvzyhwvqFzkYq-30" vertex="1">
          <mxGeometry x="3120" y="210" width="50" height="50" as="geometry" />
        </mxCell>
        <mxCell id="al4PJ4pm5zgEQlfIhQZX-3" value="Optimização de recolhas" style="points=[[0.25,0,0],[0.5,0,0],[0.75,0,0],[1,0.25,0],[1,0.5,0],[1,0.75,0],[0.75,1,0],[0.5,1,0],[0.25,1,0],[0,0.75,0],[0,0.5,0],[0,0.25,0]];shape=mxgraph.bpmn.task;whiteSpace=wrap;rectStyle=rounded;size=10;taskMarker=abstract;isLoopStandard=1;isLoopSub=1;fillColor=#dae8fc;strokeColor=#6c8ebf;" parent="j8fhtU1hvzyhwvqFzkYq-30" vertex="1">
          <mxGeometry x="2020" y="290" width="120" height="80" as="geometry" />
        </mxCell>
        <mxCell id="j8fhtU1hvzyhwvqFzkYq-100" style="edgeStyle=orthogonalEdgeStyle;rounded=0;jumpStyle=none;orthogonalLoop=1;jettySize=auto;html=1;fontSize=15;startArrow=none;startFill=0;endArrow=classic;endFill=1;strokeWidth=2;" parent="j8fhtU1hvzyhwvqFzkYq-30" source="j8fhtU1hvzyhwvqFzkYq-98" target="al4PJ4pm5zgEQlfIhQZX-3" edge="1">
          <mxGeometry relative="1" as="geometry">
            <Array as="points">
              <mxPoint x="1835" y="328" />
            </Array>
          </mxGeometry>
        </mxCell>
        <mxCell id="j8fhtU1hvzyhwvqFzkYq-104" style="edgeStyle=orthogonalEdgeStyle;rounded=0;jumpStyle=none;orthogonalLoop=1;jettySize=auto;html=1;fontSize=15;startArrow=none;startFill=0;endArrow=classic;endFill=1;strokeWidth=2;" parent="j8fhtU1hvzyhwvqFzkYq-30" source="al4PJ4pm5zgEQlfIhQZX-3" target="j8fhtU1hvzyhwvqFzkYq-103" edge="1">
          <mxGeometry relative="1" as="geometry">
            <mxPoint x="2110" y="328" as="sourcePoint" />
          </mxGeometry>
        </mxCell>
        <mxCell id="al4PJ4pm5zgEQlfIhQZX-101" value="1b" style="ellipse;whiteSpace=wrap;html=1;strokeWidth=2;fillWeight=2;hachureGap=8;fillColor=#3399FF;fillStyle=dashed;sketch=1;fontSize=20;fontColor=#000000;fontStyle=1;labelBackgroundColor=none;labelBorderColor=none;jiggle=1;" parent="j8fhtU1hvzyhwvqFzkYq-30" vertex="1">
          <mxGeometry x="727" y="325" width="40" height="40" as="geometry" />
        </mxCell>
        <mxCell id="A43F4s2ZnalGoexAEKTJ-2" value="2a" style="ellipse;whiteSpace=wrap;html=1;strokeWidth=2;fillWeight=2;hachureGap=8;fillColor=#3399FF;fillStyle=dashed;sketch=1;fontSize=20;fontColor=#000000;fontStyle=1;labelBackgroundColor=none;labelBorderColor=none;jiggle=1;" vertex="1" parent="j8fhtU1hvzyhwvqFzkYq-30">
          <mxGeometry x="1500" y="325" width="40" height="40" as="geometry" />
        </mxCell>
        <mxCell id="A43F4s2ZnalGoexAEKTJ-41" value="3" style="ellipse;whiteSpace=wrap;html=1;strokeWidth=2;fillWeight=2;hachureGap=8;fillColor=#3399FF;fillStyle=dashed;sketch=1;fontSize=20;fontColor=#000000;fontStyle=1;labelBackgroundColor=none;labelBorderColor=none;jiggle=1;" vertex="1" parent="j8fhtU1hvzyhwvqFzkYq-30">
          <mxGeometry x="2120" y="350" width="40" height="40" as="geometry" />
        </mxCell>
        <mxCell id="A43F4s2ZnalGoexAEKTJ-44" value="2b" style="ellipse;whiteSpace=wrap;html=1;strokeWidth=2;fillWeight=2;hachureGap=8;fillColor=#3399FF;fillStyle=dashed;sketch=1;fontSize=20;fontColor=#000000;fontStyle=1;labelBackgroundColor=none;labelBorderColor=none;jiggle=1;" vertex="1" parent="j8fhtU1hvzyhwvqFzkYq-30">
          <mxGeometry x="1890" y="40" width="40" height="40" as="geometry" />
        </mxCell>
        <mxCell id="j8fhtU1hvzyhwvqFzkYq-32" style="edgeStyle=orthogonalEdgeStyle;rounded=0;jumpStyle=none;orthogonalLoop=1;jettySize=auto;html=1;entryX=0;entryY=0.5;entryDx=0;entryDy=0;entryPerimeter=0;dashed=1;fontSize=15;startArrow=oval;startFill=0;endArrow=classic;endFill=1;strokeWidth=2;" parent="1" source="j8fhtU1hvzyhwvqFzkYq-25" target="j8fhtU1hvzyhwvqFzkYq-31" edge="1">
          <mxGeometry relative="1" as="geometry">
            <Array as="points">
              <mxPoint x="710" y="1000" />
              <mxPoint x="630" y="1000" />
              <mxPoint x="630" y="1230" />
            </Array>
          </mxGeometry>
        </mxCell>
        <mxCell id="j8fhtU1hvzyhwvqFzkYq-63" style="edgeStyle=orthogonalEdgeStyle;rounded=0;jumpStyle=none;orthogonalLoop=1;jettySize=auto;html=1;fontSize=15;startArrow=oval;startFill=0;endArrow=classic;endFill=1;strokeWidth=2;dashed=1;" parent="1" source="j8fhtU1hvzyhwvqFzkYq-55" target="j8fhtU1hvzyhwvqFzkYq-25" edge="1">
          <mxGeometry relative="1" as="geometry">
            <mxPoint x="1750" y="940" as="targetPoint" />
            <Array as="points">
              <mxPoint x="1875" y="1070" />
              <mxPoint x="740" y="1070" />
            </Array>
          </mxGeometry>
        </mxCell>
        <mxCell id="j8fhtU1hvzyhwvqFzkYq-73" style="edgeStyle=orthogonalEdgeStyle;rounded=0;jumpStyle=none;orthogonalLoop=1;jettySize=auto;html=1;fontSize=15;startArrow=oval;startFill=0;endArrow=classic;endFill=1;strokeWidth=2;dashed=1;" parent="1" source="j8fhtU1hvzyhwvqFzkYq-66" edge="1">
          <mxGeometry relative="1" as="geometry">
            <mxPoint x="2660" y="550" as="targetPoint" />
            <Array as="points">
              <mxPoint x="2660" y="570" />
              <mxPoint x="2660" y="570" />
            </Array>
          </mxGeometry>
        </mxCell>
        <mxCell id="j8fhtU1hvzyhwvqFzkYq-75" style="edgeStyle=orthogonalEdgeStyle;rounded=0;jumpStyle=none;orthogonalLoop=1;jettySize=auto;html=1;dashed=1;fontSize=15;startArrow=oval;startFill=0;endArrow=classic;endFill=1;strokeWidth=2;" parent="1" target="j8fhtU1hvzyhwvqFzkYq-74" edge="1">
          <mxGeometry relative="1" as="geometry">
            <mxPoint x="2790" y="550" as="sourcePoint" />
            <Array as="points">
              <mxPoint x="2790" y="550" />
            </Array>
          </mxGeometry>
        </mxCell>
        <mxCell id="j8fhtU1hvzyhwvqFzkYq-108" style="edgeStyle=orthogonalEdgeStyle;rounded=0;jumpStyle=none;orthogonalLoop=1;jettySize=auto;html=1;fontSize=15;startArrow=oval;startFill=0;endArrow=classic;endFill=1;strokeWidth=2;dashed=1;" parent="1" source="j8fhtU1hvzyhwvqFzkYq-71" target="j8fhtU1hvzyhwvqFzkYq-112" edge="1">
          <mxGeometry relative="1" as="geometry">
            <Array as="points">
              <mxPoint x="2445" y="1050" />
              <mxPoint x="875" y="1050" />
            </Array>
          </mxGeometry>
        </mxCell>
        <mxCell id="j8fhtU1hvzyhwvqFzkYq-117" style="edgeStyle=orthogonalEdgeStyle;rounded=0;jumpStyle=none;orthogonalLoop=1;jettySize=auto;html=1;fontSize=15;startArrow=oval;startFill=0;endArrow=classic;endFill=1;strokeWidth=2;dashed=1;" parent="1" source="j8fhtU1hvzyhwvqFzkYq-119" edge="1">
          <mxGeometry relative="1" as="geometry">
            <mxPoint x="1040" y="550" as="targetPoint" />
            <mxPoint x="1040" y="900" as="sourcePoint" />
            <Array as="points" />
          </mxGeometry>
        </mxCell>
        <mxCell id="j8fhtU1hvzyhwvqFzkYq-120" style="edgeStyle=orthogonalEdgeStyle;rounded=0;jumpStyle=arc;orthogonalLoop=1;jettySize=auto;html=1;fontSize=15;startArrow=oval;startFill=0;endArrow=classic;endFill=1;strokeWidth=2;dashed=1;jumpSize=10;" parent="1" source="j8fhtU1hvzyhwvqFzkYq-121" target="al4PJ4pm5zgEQlfIhQZX-3" edge="1">
          <mxGeometry relative="1" as="geometry">
            <mxPoint x="1320" y="940" as="sourcePoint" />
            <Array as="points">
              <mxPoint x="2120" y="940" />
            </Array>
          </mxGeometry>
        </mxCell>
        <mxCell id="j8fhtU1hvzyhwvqFzkYq-123" style="edgeStyle=orthogonalEdgeStyle;rounded=0;jumpStyle=arc;jumpSize=10;orthogonalLoop=1;jettySize=auto;html=1;fontSize=15;startArrow=oval;startFill=0;endArrow=classic;endFill=1;strokeWidth=2;dashed=1;" parent="1" source="j8fhtU1hvzyhwvqFzkYq-5" target="j8fhtU1hvzyhwvqFzkYq-121" edge="1">
          <mxGeometry relative="1" as="geometry">
            <Array as="points">
              <mxPoint x="1215" y="660" />
              <mxPoint x="1215" y="660" />
            </Array>
          </mxGeometry>
        </mxCell>
        <mxCell id="A43F4s2ZnalGoexAEKTJ-3" value="&lt;span style=&quot;font-size: 15px ; background-color: rgb(255 , 255 , 255)&quot;&gt;PN3. Optimização de Recolhas&lt;/span&gt;" style="swimlane;html=1;childLayout=stackLayout;resizeParent=1;resizeParentMax=0;horizontal=1;startSize=20;horizontalStack=0;" vertex="1" parent="1">
          <mxGeometry x="40" y="1730" width="1760" height="590" as="geometry">
            <mxRectangle x="40" y="1730" width="250" height="20" as="alternateBounds" />
          </mxGeometry>
        </mxCell>
        <mxCell id="A43F4s2ZnalGoexAEKTJ-4" value="&lt;span style=&quot;font-size: 15px&quot;&gt;PORVID&lt;/span&gt;" style="swimlane;html=1;startSize=20;horizontal=0;" vertex="1" parent="A43F4s2ZnalGoexAEKTJ-3">
          <mxGeometry y="20" width="1760" height="320" as="geometry" />
        </mxCell>
        <mxCell id="A43F4s2ZnalGoexAEKTJ-10" value="Parcelas de interesse a prospetar" style="points=[[0.25,0,0],[0.5,0,0],[0.75,0,0],[1,0.25,0],[1,0.5,0],[1,0.75,0],[0.75,1,0],[0.5,1,0],[0.25,1,0],[0,0.75,0],[0,0.5,0],[0,0.25,0]];shape=mxgraph.bpmn.task;whiteSpace=wrap;rectStyle=rounded;size=10;taskMarker=abstract;isLoopMultiParallel=1;fontSize=15;strokeWidth=2;" vertex="1" parent="A43F4s2ZnalGoexAEKTJ-4">
          <mxGeometry x="190" y="140" width="150" height="80" as="geometry" />
        </mxCell>
        <mxCell id="A43F4s2ZnalGoexAEKTJ-12" value="Preparação de informação sobre parcelas" style="points=[[0.25,0,0],[0.5,0,0],[0.75,0,0],[1,0.25,0],[1,0.5,0],[1,0.75,0],[0.75,1,0],[0.5,1,0],[0.25,1,0],[0,0.75,0],[0,0.5,0],[0,0.25,0]];shape=mxgraph.bpmn.task;whiteSpace=wrap;rectStyle=rounded;size=10;taskMarker=service;rounded=0;shadow=0;glass=0;sketch=0;fontSize=15;" vertex="1" parent="A43F4s2ZnalGoexAEKTJ-4">
          <mxGeometry x="410" y="140" width="150" height="80" as="geometry" />
        </mxCell>
        <mxCell id="A43F4s2ZnalGoexAEKTJ-9" style="edgeStyle=none;rounded=0;orthogonalLoop=1;jettySize=auto;html=1;fontSize=15;endArrow=classic;endFill=1;strokeWidth=2;" edge="1" parent="A43F4s2ZnalGoexAEKTJ-4" source="A43F4s2ZnalGoexAEKTJ-10" target="A43F4s2ZnalGoexAEKTJ-12">
          <mxGeometry relative="1" as="geometry" />
        </mxCell>
        <mxCell id="A43F4s2ZnalGoexAEKTJ-13" style="edgeStyle=orthogonalEdgeStyle;rounded=0;orthogonalLoop=1;jettySize=auto;html=1;fontSize=15;endArrow=open;endFill=0;strokeWidth=2;dashed=1;" edge="1" parent="A43F4s2ZnalGoexAEKTJ-4" source="A43F4s2ZnalGoexAEKTJ-14" target="A43F4s2ZnalGoexAEKTJ-12">
          <mxGeometry relative="1" as="geometry" />
        </mxCell>
        <mxCell id="A43F4s2ZnalGoexAEKTJ-14" value="BD PORVID" style="shape=datastore;labelPosition=center;verticalLabelPosition=top;align=center;verticalAlign=bottom;rounded=0;shadow=0;glass=0;sketch=0;fontSize=15;html=1;" vertex="1" parent="A43F4s2ZnalGoexAEKTJ-4">
          <mxGeometry x="465" y="30" width="40" height="50" as="geometry" />
        </mxCell>
        <mxCell id="A43F4s2ZnalGoexAEKTJ-16" value="Identificação de &quot;vinhas velhas&quot;" style="points=[[0.145,0.145,0],[0.5,0,0],[0.855,0.145,0],[1,0.5,0],[0.855,0.855,0],[0.5,1,0],[0.145,0.855,0],[0,0.5,0]];shape=mxgraph.bpmn.event;html=1;verticalLabelPosition=top;labelBackgroundColor=#ffffff;verticalAlign=bottom;align=center;perimeter=ellipsePerimeter;outlineConnect=0;aspect=fixed;outline=catching;symbol=message;rounded=0;shadow=0;glass=0;sketch=0;fontSize=15;whiteSpace=wrap;labelPosition=center;" vertex="1" parent="A43F4s2ZnalGoexAEKTJ-4">
          <mxGeometry x="830" y="155" width="50" height="50" as="geometry" />
        </mxCell>
        <mxCell id="A43F4s2ZnalGoexAEKTJ-11" style="edgeStyle=orthogonalEdgeStyle;rounded=0;orthogonalLoop=1;jettySize=auto;html=1;dashed=1;fontSize=15;startArrow=none;startFill=0;endArrow=classic;endFill=1;strokeWidth=2;" edge="1" parent="A43F4s2ZnalGoexAEKTJ-4" source="A43F4s2ZnalGoexAEKTJ-12" target="A43F4s2ZnalGoexAEKTJ-16">
          <mxGeometry relative="1" as="geometry" />
        </mxCell>
        <mxCell id="A43F4s2ZnalGoexAEKTJ-20" value="" style="points=[[0.25,0.25,0],[0.5,0,0],[0.75,0.25,0],[1,0.5,0],[0.75,0.75,0],[0.5,1,0],[0.25,0.75,0],[0,0.5,0]];shape=mxgraph.bpmn.gateway2;html=1;verticalLabelPosition=bottom;labelBackgroundColor=#ffffff;verticalAlign=top;align=center;perimeter=rhombusPerimeter;outlineConnect=0;outline=none;symbol=none;gwType=exclusive;fontSize=15;strokeWidth=2;" vertex="1" parent="A43F4s2ZnalGoexAEKTJ-4">
          <mxGeometry x="940" y="155" width="50" height="50" as="geometry" />
        </mxCell>
        <mxCell id="A43F4s2ZnalGoexAEKTJ-15" style="edgeStyle=orthogonalEdgeStyle;rounded=0;orthogonalLoop=1;jettySize=auto;html=1;fontSize=15;startArrow=none;startFill=0;endArrow=classic;endFill=1;strokeWidth=2;" edge="1" parent="A43F4s2ZnalGoexAEKTJ-4" source="A43F4s2ZnalGoexAEKTJ-16" target="A43F4s2ZnalGoexAEKTJ-20">
          <mxGeometry relative="1" as="geometry" />
        </mxCell>
        <mxCell id="A43F4s2ZnalGoexAEKTJ-22" value="Identificação de vinhas velhas geograficamente próximas" style="points=[[0.25,0,0],[0.5,0,0],[0.75,0,0],[1,0.25,0],[1,0.5,0],[1,0.75,0],[0.75,1,0],[0.5,1,0],[0.25,1,0],[0,0.75,0],[0,0.5,0],[0,0.25,0]];shape=mxgraph.bpmn.task;whiteSpace=wrap;rectStyle=rounded;size=10;taskMarker=service;rounded=0;shadow=0;glass=0;sketch=0;fontSize=15;" vertex="1" parent="A43F4s2ZnalGoexAEKTJ-4">
          <mxGeometry x="1190" y="140" width="170" height="80" as="geometry" />
        </mxCell>
        <mxCell id="A43F4s2ZnalGoexAEKTJ-17" value="Exitem vinhas velhas" style="edgeStyle=orthogonalEdgeStyle;rounded=0;orthogonalLoop=1;jettySize=auto;html=1;fontSize=15;startArrow=none;startFill=0;endArrow=classic;endFill=1;strokeWidth=2;" edge="1" parent="A43F4s2ZnalGoexAEKTJ-4" source="A43F4s2ZnalGoexAEKTJ-20" target="A43F4s2ZnalGoexAEKTJ-22">
          <mxGeometry relative="1" as="geometry" />
        </mxCell>
        <mxCell id="A43F4s2ZnalGoexAEKTJ-23" value="" style="points=[[0.145,0.145,0],[0.5,0,0],[0.855,0.145,0],[1,0.5,0],[0.855,0.855,0],[0.5,1,0],[0.145,0.855,0],[0,0.5,0]];shape=mxgraph.bpmn.event;html=1;verticalLabelPosition=bottom;labelBackgroundColor=#ffffff;verticalAlign=top;align=center;perimeter=ellipsePerimeter;outlineConnect=0;aspect=fixed;outline=end;symbol=terminate2;rounded=0;shadow=0;glass=0;sketch=0;fontSize=15;" vertex="1" parent="A43F4s2ZnalGoexAEKTJ-4">
          <mxGeometry x="1250" y="250" width="50" height="50" as="geometry" />
        </mxCell>
        <mxCell id="A43F4s2ZnalGoexAEKTJ-18" style="edgeStyle=orthogonalEdgeStyle;rounded=0;orthogonalLoop=1;jettySize=auto;html=1;entryX=0;entryY=0.5;entryDx=0;entryDy=0;entryPerimeter=0;fontSize=15;startArrow=none;startFill=0;endArrow=classic;endFill=1;strokeWidth=2;" edge="1" parent="A43F4s2ZnalGoexAEKTJ-4" source="A43F4s2ZnalGoexAEKTJ-20" target="A43F4s2ZnalGoexAEKTJ-23">
          <mxGeometry relative="1" as="geometry">
            <Array as="points">
              <mxPoint x="965" y="275" />
            </Array>
          </mxGeometry>
        </mxCell>
        <mxCell id="A43F4s2ZnalGoexAEKTJ-19" value="Não existem vinhas velhas" style="edgeLabel;html=1;align=center;verticalAlign=middle;resizable=0;points=[];fontSize=15;" vertex="1" connectable="0" parent="A43F4s2ZnalGoexAEKTJ-18">
          <mxGeometry x="-0.0973" y="-1" relative="1" as="geometry">
            <mxPoint x="35" y="-1" as="offset" />
          </mxGeometry>
        </mxCell>
        <mxCell id="A43F4s2ZnalGoexAEKTJ-25" value="Agrupamento de vinhas" style="points=[[0.25,0,0],[0.5,0,0],[0.75,0,0],[1,0.25,0],[1,0.5,0],[1,0.75,0],[0.75,1,0],[0.5,1,0],[0.25,1,0],[0,0.75,0],[0,0.5,0],[0,0.25,0]];shape=mxgraph.bpmn.task;whiteSpace=wrap;rectStyle=rounded;size=10;taskMarker=service;rounded=0;shadow=0;glass=0;sketch=0;fontSize=15;" vertex="1" parent="A43F4s2ZnalGoexAEKTJ-4">
          <mxGeometry x="1440" y="140" width="170" height="80" as="geometry" />
        </mxCell>
        <mxCell id="A43F4s2ZnalGoexAEKTJ-21" style="edgeStyle=orthogonalEdgeStyle;rounded=0;orthogonalLoop=1;jettySize=auto;html=1;fontSize=15;startArrow=none;startFill=0;endArrow=classic;endFill=1;strokeWidth=2;" edge="1" parent="A43F4s2ZnalGoexAEKTJ-4" source="A43F4s2ZnalGoexAEKTJ-22" target="A43F4s2ZnalGoexAEKTJ-25">
          <mxGeometry relative="1" as="geometry" />
        </mxCell>
        <mxCell id="A43F4s2ZnalGoexAEKTJ-26" style="edgeStyle=orthogonalEdgeStyle;rounded=0;orthogonalLoop=1;jettySize=auto;html=1;dashed=1;fontSize=15;startArrow=none;startFill=0;endArrow=open;endFill=0;strokeWidth=2;" edge="1" parent="A43F4s2ZnalGoexAEKTJ-4" source="A43F4s2ZnalGoexAEKTJ-27" target="A43F4s2ZnalGoexAEKTJ-22">
          <mxGeometry relative="1" as="geometry" />
        </mxCell>
        <mxCell id="A43F4s2ZnalGoexAEKTJ-27" value="BD PORVID" style="shape=datastore;labelPosition=center;verticalLabelPosition=top;align=center;verticalAlign=bottom;rounded=0;shadow=0;glass=0;sketch=0;fontSize=15;html=1;" vertex="1" parent="A43F4s2ZnalGoexAEKTJ-4">
          <mxGeometry x="1255" y="30" width="40" height="50" as="geometry" />
        </mxCell>
        <mxCell id="A43F4s2ZnalGoexAEKTJ-28" value="" style="points=[[0.145,0.145,0],[0.5,0,0],[0.855,0.145,0],[1,0.5,0],[0.855,0.855,0],[0.5,1,0],[0.145,0.855,0],[0,0.5,0]];shape=mxgraph.bpmn.event;html=1;verticalLabelPosition=bottom;labelBackgroundColor=#ffffff;verticalAlign=top;align=center;perimeter=ellipsePerimeter;outlineConnect=0;aspect=fixed;outline=end;symbol=terminate2;rounded=0;shadow=0;glass=0;sketch=0;fontSize=15;" vertex="1" parent="A43F4s2ZnalGoexAEKTJ-4">
          <mxGeometry x="1690" y="155" width="50" height="50" as="geometry" />
        </mxCell>
        <mxCell id="A43F4s2ZnalGoexAEKTJ-24" style="edgeStyle=orthogonalEdgeStyle;rounded=0;orthogonalLoop=1;jettySize=auto;html=1;fontSize=15;startArrow=none;startFill=0;endArrow=classic;endFill=1;strokeWidth=2;" edge="1" parent="A43F4s2ZnalGoexAEKTJ-4" source="A43F4s2ZnalGoexAEKTJ-25" target="A43F4s2ZnalGoexAEKTJ-28">
          <mxGeometry relative="1" as="geometry" />
        </mxCell>
        <mxCell id="A43F4s2ZnalGoexAEKTJ-40" style="edgeStyle=orthogonalEdgeStyle;rounded=0;orthogonalLoop=1;jettySize=auto;html=1;strokeWidth=2;" edge="1" parent="A43F4s2ZnalGoexAEKTJ-4" source="A43F4s2ZnalGoexAEKTJ-39" target="A43F4s2ZnalGoexAEKTJ-10">
          <mxGeometry relative="1" as="geometry" />
        </mxCell>
        <mxCell id="A43F4s2ZnalGoexAEKTJ-39" value="" style="points=[[0.145,0.145,0],[0.5,0,0],[0.855,0.145,0],[1,0.5,0],[0.855,0.855,0],[0.5,1,0],[0.145,0.855,0],[0,0.5,0]];shape=mxgraph.bpmn.event;html=1;verticalLabelPosition=bottom;labelBackgroundColor=#ffffff;verticalAlign=top;align=center;perimeter=ellipsePerimeter;outlineConnect=0;aspect=fixed;outline=standard;symbol=general;" vertex="1" parent="A43F4s2ZnalGoexAEKTJ-4">
          <mxGeometry x="70" y="155" width="50" height="50" as="geometry" />
        </mxCell>
        <mxCell id="A43F4s2ZnalGoexAEKTJ-5" value="&lt;span style=&quot;font-size: 15px&quot;&gt;IVDP&lt;/span&gt;" style="swimlane;html=1;startSize=20;horizontal=0;" vertex="1" parent="A43F4s2ZnalGoexAEKTJ-3">
          <mxGeometry y="340" width="1760" height="250" as="geometry" />
        </mxCell>
        <mxCell id="A43F4s2ZnalGoexAEKTJ-31" value="&lt;font face=&quot;arial, sans-serif&quot;&gt;Parcelas de interesse PORVID&lt;/font&gt;" style="points=[[0.145,0.145,0],[0.5,0,0],[0.855,0.145,0],[1,0.5,0],[0.855,0.855,0],[0.5,1,0],[0.145,0.855,0],[0,0.5,0]];shape=mxgraph.bpmn.event;html=1;verticalLabelPosition=bottom;labelBackgroundColor=#ffffff;verticalAlign=top;align=center;perimeter=ellipsePerimeter;outlineConnect=0;aspect=fixed;outline=standard;symbol=message;rounded=0;shadow=0;glass=0;sketch=0;fontSize=15;whiteSpace=wrap;" vertex="1" parent="A43F4s2ZnalGoexAEKTJ-5">
          <mxGeometry x="465" y="40" width="40" height="40" as="geometry" />
        </mxCell>
        <mxCell id="A43F4s2ZnalGoexAEKTJ-33" value="Identificação de &quot;vinhas velhas&quot;" style="points=[[0.25,0,0],[0.5,0,0],[0.75,0,0],[1,0.25,0],[1,0.5,0],[1,0.75,0],[0.75,1,0],[0.5,1,0],[0.25,1,0],[0,0.75,0],[0,0.5,0],[0,0.25,0]];shape=mxgraph.bpmn.task;whiteSpace=wrap;rectStyle=rounded;size=10;taskMarker=service;rounded=0;shadow=0;glass=0;sketch=0;fontSize=15;" vertex="1" parent="A43F4s2ZnalGoexAEKTJ-5">
          <mxGeometry x="570" y="20" width="150" height="80" as="geometry" />
        </mxCell>
        <mxCell id="A43F4s2ZnalGoexAEKTJ-30" style="edgeStyle=orthogonalEdgeStyle;rounded=0;orthogonalLoop=1;jettySize=auto;html=1;fontSize=15;startArrow=none;startFill=0;endArrow=classic;endFill=1;strokeWidth=2;" edge="1" parent="A43F4s2ZnalGoexAEKTJ-5" source="A43F4s2ZnalGoexAEKTJ-31" target="A43F4s2ZnalGoexAEKTJ-33">
          <mxGeometry relative="1" as="geometry" />
        </mxCell>
        <mxCell id="A43F4s2ZnalGoexAEKTJ-34" style="edgeStyle=orthogonalEdgeStyle;rounded=0;orthogonalLoop=1;jettySize=auto;html=1;fontSize=15;startArrow=none;startFill=0;endArrow=classic;endFill=1;strokeWidth=2;dashed=1;" edge="1" parent="A43F4s2ZnalGoexAEKTJ-5" source="A43F4s2ZnalGoexAEKTJ-35" target="A43F4s2ZnalGoexAEKTJ-33">
          <mxGeometry relative="1" as="geometry" />
        </mxCell>
        <mxCell id="A43F4s2ZnalGoexAEKTJ-35" value="BD IVDP" style="shape=datastore;labelPosition=center;verticalLabelPosition=bottom;align=center;verticalAlign=top;rounded=0;shadow=0;glass=0;sketch=0;fontSize=15;html=1;" vertex="1" parent="A43F4s2ZnalGoexAEKTJ-5">
          <mxGeometry x="625" y="146" width="40" height="50" as="geometry" />
        </mxCell>
        <mxCell id="A43F4s2ZnalGoexAEKTJ-36" value="Notificar PORVID" style="points=[[0.25,0,0],[0.5,0,0],[0.75,0,0],[1,0.25,0],[1,0.5,0],[1,0.75,0],[0.75,1,0],[0.5,1,0],[0.25,1,0],[0,0.75,0],[0,0.5,0],[0,0.25,0]];shape=mxgraph.bpmn.task;whiteSpace=wrap;rectStyle=rounded;size=10;taskMarker=send;rounded=0;shadow=0;glass=0;sketch=0;fontSize=15;align=center;verticalAlign=middle;html=1;" vertex="1" parent="A43F4s2ZnalGoexAEKTJ-5">
          <mxGeometry x="790" y="20" width="130" height="80" as="geometry" />
        </mxCell>
        <mxCell id="A43F4s2ZnalGoexAEKTJ-32" style="edgeStyle=orthogonalEdgeStyle;rounded=0;orthogonalLoop=1;jettySize=auto;html=1;fontSize=15;startArrow=none;startFill=0;endArrow=classic;endFill=1;strokeWidth=2;" edge="1" parent="A43F4s2ZnalGoexAEKTJ-5" source="A43F4s2ZnalGoexAEKTJ-33" target="A43F4s2ZnalGoexAEKTJ-36">
          <mxGeometry relative="1" as="geometry" />
        </mxCell>
        <mxCell id="A43F4s2ZnalGoexAEKTJ-37" style="edgeStyle=orthogonalEdgeStyle;rounded=0;orthogonalLoop=1;jettySize=auto;html=1;dashed=1;fontSize=15;endArrow=classic;endFill=1;strokeWidth=2;startArrow=oval;startFill=0;" edge="1" parent="A43F4s2ZnalGoexAEKTJ-3" source="A43F4s2ZnalGoexAEKTJ-12" target="A43F4s2ZnalGoexAEKTJ-31">
          <mxGeometry relative="1" as="geometry" />
        </mxCell>
        <mxCell id="A43F4s2ZnalGoexAEKTJ-38" style="edgeStyle=orthogonalEdgeStyle;rounded=0;orthogonalLoop=1;jettySize=auto;html=1;fontSize=15;startArrow=oval;startFill=0;endArrow=classic;endFill=1;strokeWidth=2;dashed=1;" edge="1" parent="A43F4s2ZnalGoexAEKTJ-3" source="A43F4s2ZnalGoexAEKTJ-36" target="A43F4s2ZnalGoexAEKTJ-16">
          <mxGeometry relative="1" as="geometry" />
        </mxCell>
        <mxCell id="A43F4s2ZnalGoexAEKTJ-59" value="&lt;h1 style=&quot;font-size: 54px;&quot;&gt;SOS VITIS&lt;/h1&gt;" style="text;html=1;strokeColor=none;fillColor=none;spacing=5;spacingTop=-20;whiteSpace=wrap;overflow=hidden;rounded=0;fontFamily=Roboto;fontSource=https%3A%2F%2Ffonts.googleapis.com%2Fcss%3Ffamily%3DRoboto;fontSize=54;align=left;opacity=50;fontStyle=4" vertex="1" parent="1">
          <mxGeometry x="40" y="40" width="270" height="100" as="geometry" />
        </mxCell>
        <mxCell id="A43F4s2ZnalGoexAEKTJ-60" value="" style="group" vertex="1" connectable="0" parent="1">
          <mxGeometry x="40" y="140" width="880" height="280" as="geometry" />
        </mxCell>
        <mxCell id="A43F4s2ZnalGoexAEKTJ-57" value="" style="rounded=0;whiteSpace=wrap;html=1;fontFamily=Roboto;fontSource=https%3A%2F%2Ffonts.googleapis.com%2Fcss%3Ffamily%3DRoboto;fontSize=23;fillColor=#bac8d3;align=left;strokeColor=none;opacity=50;" vertex="1" parent="A43F4s2ZnalGoexAEKTJ-60">
          <mxGeometry width="880" height="280" as="geometry" />
        </mxCell>
        <mxCell id="A43F4s2ZnalGoexAEKTJ-46" value="1a" style="ellipse;whiteSpace=wrap;html=1;strokeWidth=2;fillWeight=2;hachureGap=8;fillColor=#3399FF;fillStyle=dashed;sketch=1;fontSize=20;fontColor=#000000;fontStyle=1;labelBackgroundColor=none;labelBorderColor=none;jiggle=1;" vertex="1" parent="A43F4s2ZnalGoexAEKTJ-60">
          <mxGeometry x="10" y="20" width="40" height="40" as="geometry" />
        </mxCell>
        <mxCell id="A43F4s2ZnalGoexAEKTJ-47" value="1b" style="ellipse;whiteSpace=wrap;html=1;strokeWidth=2;fillWeight=2;hachureGap=8;fillColor=#3399FF;fillStyle=dashed;sketch=1;fontSize=20;fontColor=#000000;fontStyle=1;labelBackgroundColor=none;labelBorderColor=none;jiggle=1;" vertex="1" parent="A43F4s2ZnalGoexAEKTJ-60">
          <mxGeometry x="10" y="69" width="40" height="40" as="geometry" />
        </mxCell>
        <mxCell id="A43F4s2ZnalGoexAEKTJ-48" value="2a" style="ellipse;whiteSpace=wrap;html=1;strokeWidth=2;fillWeight=2;hachureGap=8;fillColor=#3399FF;fillStyle=dashed;sketch=1;fontSize=20;fontColor=#000000;fontStyle=1;labelBackgroundColor=none;labelBorderColor=none;jiggle=1;" vertex="1" parent="A43F4s2ZnalGoexAEKTJ-60">
          <mxGeometry x="10" y="120" width="40" height="40" as="geometry" />
        </mxCell>
        <mxCell id="A43F4s2ZnalGoexAEKTJ-49" value="2b" style="ellipse;whiteSpace=wrap;html=1;strokeWidth=2;fillWeight=2;hachureGap=8;fillColor=#3399FF;fillStyle=dashed;sketch=1;fontSize=20;fontColor=#000000;fontStyle=1;labelBackgroundColor=none;labelBorderColor=none;jiggle=1;" vertex="1" parent="A43F4s2ZnalGoexAEKTJ-60">
          <mxGeometry x="10" y="170" width="40" height="40" as="geometry" />
        </mxCell>
        <mxCell id="A43F4s2ZnalGoexAEKTJ-50" value="3" style="ellipse;whiteSpace=wrap;html=1;strokeWidth=2;fillWeight=2;hachureGap=8;fillColor=#3399FF;fillStyle=dashed;sketch=1;fontSize=20;fontColor=#000000;fontStyle=1;labelBackgroundColor=none;labelBorderColor=none;jiggle=1;" vertex="1" parent="A43F4s2ZnalGoexAEKTJ-60">
          <mxGeometry x="10" y="220" width="40" height="40" as="geometry" />
        </mxCell>
        <mxCell id="A43F4s2ZnalGoexAEKTJ-52" value="Identificar parcela alvo de intervenção VITIS" style="text;html=1;strokeColor=none;fillColor=none;align=left;verticalAlign=middle;whiteSpace=wrap;rounded=0;fontFamily=Roboto;fontSize=23;fontStyle=1;fontSource=https%3A%2F%2Ffonts.googleapis.com%2Fcss%3Ffamily%3DRoboto;" vertex="1" parent="A43F4s2ZnalGoexAEKTJ-60">
          <mxGeometry x="70" y="25" width="780" height="30" as="geometry" />
        </mxCell>
        <mxCell id="A43F4s2ZnalGoexAEKTJ-53" value="Receber informação descritiva sobre a parcela alvo de intervenção VITIS" style="text;html=1;strokeColor=none;fillColor=none;align=left;verticalAlign=middle;whiteSpace=wrap;rounded=0;fontFamily=Roboto;fontSize=23;fontStyle=1;fontSource=https%3A%2F%2Ffonts.googleapis.com%2Fcss%3Ffamily%3DRoboto;" vertex="1" parent="A43F4s2ZnalGoexAEKTJ-60">
          <mxGeometry x="70" y="74" width="780" height="30" as="geometry" />
        </mxCell>
        <mxCell id="A43F4s2ZnalGoexAEKTJ-54" value="Analisar a informação descritiva sobre a parcela alvo de intervenção VITIS" style="text;html=1;strokeColor=none;fillColor=none;align=left;verticalAlign=middle;whiteSpace=wrap;rounded=0;fontFamily=Roboto;fontSize=23;fontStyle=1;fontSource=https%3A%2F%2Ffonts.googleapis.com%2Fcss%3Ffamily%3DRoboto;" vertex="1" parent="A43F4s2ZnalGoexAEKTJ-60">
          <mxGeometry x="70" y="125" width="780" height="30" as="geometry" />
        </mxCell>
        <mxCell id="A43F4s2ZnalGoexAEKTJ-55" value="Agendar uma prospeção à parcela" style="text;html=1;strokeColor=none;fillColor=none;align=left;verticalAlign=middle;whiteSpace=wrap;rounded=0;fontFamily=Roboto;fontSize=23;fontStyle=1;fontSource=https%3A%2F%2Ffonts.googleapis.com%2Fcss%3Ffamily%3DRoboto;" vertex="1" parent="A43F4s2ZnalGoexAEKTJ-60">
          <mxGeometry x="70" y="175" width="780" height="30" as="geometry" />
        </mxCell>
        <mxCell id="A43F4s2ZnalGoexAEKTJ-56" value="Optimização da rota de prospeção" style="text;html=1;strokeColor=none;fillColor=none;align=left;verticalAlign=middle;whiteSpace=wrap;rounded=0;fontFamily=Roboto;fontSize=23;fontStyle=1;fontSource=https%3A%2F%2Ffonts.googleapis.com%2Fcss%3Ffamily%3DRoboto;" vertex="1" parent="A43F4s2ZnalGoexAEKTJ-60">
          <mxGeometry x="70" y="225" width="780" height="30" as="geometry" />
        </mxCell>
      </root>
    </mxGraphModel>
  </diagram>
</mxfile>
